HIERARCHY
ROOT Hips
{
 OFFSET 0.000000 0.000000 0.000000
 CHANNELS 6 Xposition Yposition Zposition Yrotation Xrotation Zrotation
 JOINT Chest
 {
  OFFSET 0.000000 9.585900 0.002600
  CHANNELS 3 Yrotation Xrotation Zrotation
  JOINT Chest2
  {
   OFFSET 0.000000 9.601200 -0.005300
   CHANNELS 3 Yrotation Xrotation Zrotation
   JOINT Chest3
   {
    OFFSET 0.000000 9.561800 0.000000
    CHANNELS 3 Yrotation Xrotation Zrotation
    JOINT Chest4
    {
     OFFSET 0.000000 9.552100 0.000000
     CHANNELS 3 Yrotation Xrotation Zrotation
     JOINT Neck
     {
      OFFSET 0.000000 14.453000 0.000000
      CHANNELS 3 Yrotation Xrotation Zrotation
      JOINT Head
      {
       OFFSET 0.000000 8.936500 -0.011300
       CHANNELS 3 Yrotation Xrotation Zrotation
       End Site
       {
        OFFSET 0.000000 17.073600 -0.006000
       }
      }
     }
     JOINT RightCollar
     {
      OFFSET -2.921100 9.558500 0.000000
      CHANNELS 3 Yrotation Xrotation Zrotation
      JOINT RightShoulder
      {
       OFFSET -13.519700 0.000000 0.000000
       CHANNELS 3 Yrotation Xrotation Zrotation
       JOINT RightElbow
       {
        OFFSET 0.000000 -29.696600 0.000000
        CHANNELS 3 Yrotation Xrotation Zrotation
        JOINT RightWrist
        {
         OFFSET 0.000000 -24.004700 0.000000
         CHANNELS 3 Yrotation Xrotation Zrotation
         End Site
         {
          OFFSET 0.000000 -17.728500 0.000000
         }
        }
       }
      }
     }
     JOINT LeftCollar
     {
      OFFSET 2.921100 9.558500 0.000000
      CHANNELS 3 Yrotation Xrotation Zrotation
      JOINT LeftShoulder
      {
       OFFSET 13.519700 0.000000 0.000000
       CHANNELS 3 Yrotation Xrotation Zrotation
       JOINT LeftElbow
       {
        OFFSET 0.000000 -29.696600 0.000000
        CHANNELS 3 Yrotation Xrotation Zrotation
        JOINT LeftWrist
        {
         OFFSET 0.000000 -24.004700 0.000000
         CHANNELS 3 Yrotation Xrotation Zrotation
         End Site
         {
          OFFSET 0.000000 -17.728500 0.000000
         }
        }
       }
      }
     }
    }
   }
  }
 }
 JOINT RightHip
 {
  OFFSET -7.771700 -0.012900 -0.001300
  CHANNELS 3 Yrotation Xrotation Zrotation
  JOINT RightKnee
  {
   OFFSET 0.000000 -40.869800 0.001200
   CHANNELS 3 Yrotation Xrotation Zrotation
   JOINT RightAnkle
   {
    OFFSET 0.000000 -39.717900 0.002100
    CHANNELS 3 Yrotation Xrotation Zrotation
    JOINT RightToe
    {
     OFFSET 0.000000 -4.965400 11.033500
     CHANNELS 3 Yrotation Xrotation Zrotation
     End Site
     {
      OFFSET 0.000000 -1.423100 5.872300
     }
    }
   }
  }
 }
 JOINT LeftHip
 {
  OFFSET 7.771700 -0.012900 -0.001300
  CHANNELS 3 Yrotation Xrotation Zrotation
  JOINT LeftKnee
  {
   OFFSET 0.000000 -40.869800 0.001200
   CHANNELS 3 Yrotation Xrotation Zrotation
   JOINT LeftAnkle
   {
    OFFSET 0.000000 -39.717900 0.002100
    CHANNELS 3 Yrotation Xrotation Zrotation
    JOINT LeftToe
    {
     OFFSET 0.000000 -4.965400 11.033500
     CHANNELS 3 Yrotation Xrotation Zrotation
     End Site
     {
      OFFSET 0.000000 -1.423100 5.872300
     }
    }
   }
  }
 }
}
MOTION
Frames: 6
Frame Time: 0.008333
-219.100953 57.200691 135.297082 174.430877 -31.369145 -1.458695 2.845596 21.837001 2.776166 0.289247 2.996451 0.354304 0.467499 4.881671 0.590192 2.100611 18.472107 2.520932 0.264573 13.680588 -1.142554 0.942633 -10.497839 -2.314365 3.983985 -3.546053 -1.390732 15.581272 -16.965224 -21.698575 136.921764 -72.251510 -98.772758 15.555330 -12.960822 -39.397665 -6.289553 -5.607139 -1.759704 -2.336307 -8.398550 -0.138037 37.225012 -40.216850 -77.845494 5.072531 -9.310303 11.973645 5.327254 -45.059718 -2.641964 -13.758639 67.286698 -17.314108 7.678966 23.206054 5.129479 -0.413581 -14.067842 4.652914 -8.275275 -42.019637 5.368370 32.589536 69.531278 35.049572 -14.247171 3.046805 -6.637304 0.056252 0.465898 0.018293
-219.100859 57.201385 135.296896 174.433827 -31.365957 -1.458056 2.838586 21.838352 2.774055 0.284044 3.001177 0.357732 0.467593 4.882108 0.591530 2.096274 18.481675 2.537518 0.261348 13.625563 -1.180653 0.937493 -10.582600 -2.362438 3.994116 -3.565375 -1.421361 15.569159 -16.967728 -21.691601 136.933124 -72.255054 -98.770680 15.548669 -12.954333 -39.398178 -6.298716 -5.644416 -1.769304 -2.340616 -8.383581 -0.133822 37.216727 -40.207942 -77.842074 5.072099 -9.288753 11.989501 5.339128 -45.061779 -2.644329 -13.782813 67.283541 -17.333599 7.666799 23.206487 5.120506 -0.403744 -14.063167 4.659217 -8.279166 -42.022920 5.358853 32.601771 69.530166 35.065050 -14.231042 3.051348 -6.633002 0.043513 0.462460 0.013226
-219.100936 57.201623 135.297326 174.439881 -31.358412 -1.459072 2.829796 21.835345 2.771682 0.281093 3.005508 0.359803 0.463881 4.890351 0.597514 2.096548 18.474725 2.539315 0.252941 13.579347 -1.208019 0.928905 -10.667001 -2.412912 3.998406 -3.576874 -1.438350 15.555331 -16.968512 -21.684270 136.945258 -72.258416 -98.770019 15.537963 -12.952691 -39.394895 -6.309720 -5.674134 -1.764863 -2.346176 -8.364076 -0.130809 37.189281 -40.197518 -77.827678 5.079604 -9.322568 11.997941 5.340561 -45.068668 -2.648451 -13.784795 67.282880 -17.332769 7.663140 23.204801 5.114816 -0.405657 -14.059340 4.664063 -8.284832 -42.032509 5.353385 32.616293 69.530417 35.080323 -14.221581 3.056644 -6.627917 0.033854 0.458656 0.009915
-219.100718 57.201517 135.298367 174.440541 -31.347025 -1.460779 2.817039 21.842526 2.777462 0.288727 2.997774 0.354446 0.466670 4.882814 0.594524 2.091589 18.478357 2.548670 0.245179 13.537244 -1.234133 0.915593 -10.751176 -2.470115 3.998966 -3.587752 -1.451692 15.550830 -16.965674 -21.679918 136.970028 -72.281513 -98.784699 15.552689 -12.941543 -39.398135 -6.320082 -5.697507 -1.761599 -2.348715 -8.348592 -0.123756 37.165885 -40.182512 -77.810387 5.083394 -9.350417 11.998057 5.342166 -45.079518 -2.648926 -13.778264 67.279686 -17.323242 7.660432 23.207864 5.110639 -0.398250 -14.055625 4.664726 -8.289653 -42.046175 5.357924 32.633029 69.532533 35.093579 -14.218198 3.061019 -6.620505 0.026115 0.454807 0.006958
-219.101278 57.201250 135.299592 174.440975 -31.333724 -1.459510 2.808237 21.836642 2.779146 0.286803 2.999335 0.354353 0.465428 4.882700 0.595975 2.095218 18.472323 2.542301 0.221052 13.478172 -1.260234 0.912904 -10.813013 -2.531121 3.995289 -3.596107 -1.456315 15.554177 -16.960211 -21.677274 136.974815 -72.297079 -98.785557 15.552146 -12.934859 -39.390927 -6.357876 -5.724543 -1.734477 -2.313469 -8.326477 -0.141544 37.126677 -40.169675 -77.780787 5.088219 -9.358564 11.991314 5.344718 -45.094201 -2.655175 -13.781265 67.279634 -17.323846 7.668582 23.207494 5.110699 -0.385522 -14.050175 4.660984 -8.292414 -42.061298 5.359919 32.630761 69.535948 35.091749 -14.219729 3.065880 -6.619525 0.029198 0.449550 0.005245
-219.102316 57.201292 135.300337 174.444796 -31.323172 -1.458459 2.797618 21.833376 2.778131 0.284014 2.998529 0.359032 0.463938 4.882473 0.597219 2.089615 18.471974 2.546500 0.203450 13.427519 -1.306806 0.901271 -10.884041 -2.595343 3.989948 -3.612317 -1.463319 15.567744 -16.948952 -21.681070 136.970495 -72.316826 -98.770102 15.557407 -12.936943 -39.376559 -6.369457 -5.747011 -1.736305 -2.297161 -8.313083 -0.147537 37.090492 -40.154312 -77.750196 5.088600 -9.364815 11.984876 5.343108 -45.105387 -2.662927 -13.775559 67.280198 -17.318366 7.688739 23.207210 5.106874 -0.400713 -14.050067 4.671001 -8.295202 -42.072415 5.358632 32.621787 69.537787 35.082146 -14.217502 3.069894 -6.617289 0.033075 0.448015 0.005249
